<mxfile host="Electron" modified="2024-04-19T11:05:25.922Z" agent="Mozilla/5.0 (Windows NT 10.0; Win64; x64) AppleWebKit/537.36 (KHTML, like Gecko) draw.io/22.1.11 Chrome/114.0.5735.289 Electron/25.9.8 Safari/537.36" etag="wJClZRxJvLCCAeIyUlrG" version="22.1.11" type="device">
  <diagram name="Page-1" id="uqzM7WgH--FVufiqKyRP">
    <mxGraphModel dx="880" dy="532" grid="1" gridSize="10" guides="1" tooltips="1" connect="1" arrows="1" fold="1" page="0" pageScale="1" pageWidth="827" pageHeight="1500" math="0" shadow="0">
      <root>
        <mxCell id="0" />
        <mxCell id="1" parent="0" />
        <mxCell id="k0Rl8s1EK3ENWqktew9t-3" style="edgeStyle=orthogonalEdgeStyle;rounded=0;orthogonalLoop=1;jettySize=auto;html=1;fontStyle=0" parent="1" source="k0Rl8s1EK3ENWqktew9t-1" target="k0Rl8s1EK3ENWqktew9t-2" edge="1">
          <mxGeometry relative="1" as="geometry" />
        </mxCell>
        <mxCell id="k0Rl8s1EK3ENWqktew9t-1" value="start" style="rounded=0;whiteSpace=wrap;html=1;fontStyle=0" parent="1" vertex="1">
          <mxGeometry x="360" y="40" width="120" height="40" as="geometry" />
        </mxCell>
        <mxCell id="3xxATCVoaZWoX0nz2V9E-2" style="edgeStyle=orthogonalEdgeStyle;rounded=0;orthogonalLoop=1;jettySize=auto;html=1;" parent="1" source="k0Rl8s1EK3ENWqktew9t-2" target="3xxATCVoaZWoX0nz2V9E-1" edge="1">
          <mxGeometry relative="1" as="geometry" />
        </mxCell>
        <mxCell id="k0Rl8s1EK3ENWqktew9t-2" value="interactive: isTerminal == 1&lt;br&gt;non-interactive: isTerminal == 0&lt;br&gt;file: argc == 2" style="rounded=0;whiteSpace=wrap;html=1;fontStyle=0" parent="1" vertex="1">
          <mxGeometry x="320" y="120" width="200" height="80" as="geometry" />
        </mxCell>
        <mxCell id="3xxATCVoaZWoX0nz2V9E-4" style="edgeStyle=orthogonalEdgeStyle;rounded=0;orthogonalLoop=1;jettySize=auto;html=1;entryX=0.5;entryY=0;entryDx=0;entryDy=0;" parent="1" source="3xxATCVoaZWoX0nz2V9E-1" target="3xxATCVoaZWoX0nz2V9E-3" edge="1">
          <mxGeometry relative="1" as="geometry" />
        </mxCell>
        <mxCell id="3xxATCVoaZWoX0nz2V9E-1" value="split given command to&lt;br&gt;multiple ones using \n" style="rounded=0;whiteSpace=wrap;html=1;fontStyle=0" parent="1" vertex="1">
          <mxGeometry x="320" y="240" width="200" height="80" as="geometry" />
        </mxCell>
        <mxCell id="3xxATCVoaZWoX0nz2V9E-18" style="edgeStyle=orthogonalEdgeStyle;rounded=0;orthogonalLoop=1;jettySize=auto;html=1;entryX=0.5;entryY=0;entryDx=0;entryDy=0;" parent="1" source="3xxATCVoaZWoX0nz2V9E-3" target="3xxATCVoaZWoX0nz2V9E-17" edge="1">
          <mxGeometry relative="1" as="geometry" />
        </mxCell>
        <mxCell id="3xxATCVoaZWoX0nz2V9E-3" value="split command based on:&lt;br&gt;&amp;amp;&amp;amp; || # ;" style="rounded=0;whiteSpace=wrap;html=1;" parent="1" vertex="1">
          <mxGeometry x="320" y="360" width="200" height="80" as="geometry" />
        </mxCell>
        <mxCell id="3xxATCVoaZWoX0nz2V9E-7" value="" style="endArrow=none;html=1;rounded=0;" parent="1" edge="1">
          <mxGeometry width="50" height="50" relative="1" as="geometry">
            <mxPoint x="520" y="264.84" as="sourcePoint" />
            <mxPoint x="580" y="264.84" as="targetPoint" />
          </mxGeometry>
        </mxCell>
        <mxCell id="3xxATCVoaZWoX0nz2V9E-9" value="" style="endArrow=none;html=1;rounded=0;" parent="1" edge="1">
          <mxGeometry width="50" height="50" relative="1" as="geometry">
            <mxPoint x="580" y="264.84" as="sourcePoint" />
            <mxPoint x="580" y="294.84" as="targetPoint" />
          </mxGeometry>
        </mxCell>
        <mxCell id="3xxATCVoaZWoX0nz2V9E-10" value="" style="endArrow=classic;html=1;rounded=0;entryX=1;entryY=0.623;entryDx=0;entryDy=0;entryPerimeter=0;" parent="1" edge="1">
          <mxGeometry width="50" height="50" relative="1" as="geometry">
            <mxPoint x="580" y="294.84" as="sourcePoint" />
            <mxPoint x="520" y="294.6799999999999" as="targetPoint" />
          </mxGeometry>
        </mxCell>
        <mxCell id="3xxATCVoaZWoX0nz2V9E-11" value="" style="endArrow=none;html=1;rounded=0;" parent="1" edge="1">
          <mxGeometry width="50" height="50" relative="1" as="geometry">
            <mxPoint x="520" y="384.76" as="sourcePoint" />
            <mxPoint x="580" y="384.76" as="targetPoint" />
          </mxGeometry>
        </mxCell>
        <mxCell id="3xxATCVoaZWoX0nz2V9E-12" value="" style="endArrow=none;html=1;rounded=0;" parent="1" edge="1">
          <mxGeometry width="50" height="50" relative="1" as="geometry">
            <mxPoint x="580" y="384.76" as="sourcePoint" />
            <mxPoint x="580" y="414.76" as="targetPoint" />
          </mxGeometry>
        </mxCell>
        <mxCell id="3xxATCVoaZWoX0nz2V9E-13" value="" style="endArrow=classic;html=1;rounded=0;entryX=1;entryY=0.623;entryDx=0;entryDy=0;entryPerimeter=0;" parent="1" edge="1">
          <mxGeometry width="50" height="50" relative="1" as="geometry">
            <mxPoint x="580" y="414.76" as="sourcePoint" />
            <mxPoint x="520" y="414.76" as="targetPoint" />
          </mxGeometry>
        </mxCell>
        <mxCell id="3xxATCVoaZWoX0nz2V9E-14" value="" style="endArrow=none;html=1;rounded=0;" parent="1" edge="1">
          <mxGeometry width="50" height="50" relative="1" as="geometry">
            <mxPoint x="240" y="400" as="sourcePoint" />
            <mxPoint x="320" y="399.76571428571106" as="targetPoint" />
          </mxGeometry>
        </mxCell>
        <mxCell id="3xxATCVoaZWoX0nz2V9E-15" value="" style="endArrow=none;html=1;rounded=0;" parent="1" edge="1">
          <mxGeometry width="50" height="50" relative="1" as="geometry">
            <mxPoint x="240" y="280" as="sourcePoint" />
            <mxPoint x="240.00238095238115" y="400" as="targetPoint" />
          </mxGeometry>
        </mxCell>
        <mxCell id="3xxATCVoaZWoX0nz2V9E-16" value="" style="endArrow=classic;html=1;rounded=0;entryX=0;entryY=0.5;entryDx=0;entryDy=0;" parent="1" target="3xxATCVoaZWoX0nz2V9E-1" edge="1">
          <mxGeometry width="50" height="50" relative="1" as="geometry">
            <mxPoint x="240" y="279.76571428571106" as="sourcePoint" />
            <mxPoint x="300" y="279.76571428571106" as="targetPoint" />
          </mxGeometry>
        </mxCell>
        <mxCell id="Nc5N-h8wg_i3yVpdRop5-3" style="edgeStyle=orthogonalEdgeStyle;rounded=0;orthogonalLoop=1;jettySize=auto;html=1;" parent="1" source="3xxATCVoaZWoX0nz2V9E-17" target="3xxATCVoaZWoX0nz2V9E-19" edge="1">
          <mxGeometry relative="1" as="geometry" />
        </mxCell>
        <mxCell id="3xxATCVoaZWoX0nz2V9E-17" value="check argv[0]" style="rounded=0;whiteSpace=wrap;html=1;" parent="1" vertex="1">
          <mxGeometry x="360" y="480" width="120" height="40" as="geometry" />
        </mxCell>
        <mxCell id="Nc5N-h8wg_i3yVpdRop5-4" style="edgeStyle=orthogonalEdgeStyle;rounded=0;orthogonalLoop=1;jettySize=auto;html=1;entryX=0;entryY=0.5;entryDx=0;entryDy=0;" parent="1" source="3xxATCVoaZWoX0nz2V9E-19" target="3xxATCVoaZWoX0nz2V9E-20" edge="1">
          <mxGeometry relative="1" as="geometry" />
        </mxCell>
        <mxCell id="kh56WcbORNSIu8fUKzlQ-9" value="no" style="edgeLabel;html=1;align=center;verticalAlign=middle;resizable=0;points=[];" parent="Nc5N-h8wg_i3yVpdRop5-4" vertex="1" connectable="0">
          <mxGeometry relative="1" as="geometry">
            <mxPoint as="offset" />
          </mxGeometry>
        </mxCell>
        <mxCell id="3xxATCVoaZWoX0nz2V9E-19" value="check if accessible using access(X_OK)" style="rounded=0;whiteSpace=wrap;html=1;" parent="1" vertex="1">
          <mxGeometry x="80" y="560" width="160" height="80" as="geometry" />
        </mxCell>
        <mxCell id="Nc5N-h8wg_i3yVpdRop5-5" style="edgeStyle=orthogonalEdgeStyle;rounded=0;orthogonalLoop=1;jettySize=auto;html=1;entryX=0;entryY=0.5;entryDx=0;entryDy=0;" parent="1" source="3xxATCVoaZWoX0nz2V9E-20" target="Nc5N-h8wg_i3yVpdRop5-1" edge="1">
          <mxGeometry relative="1" as="geometry" />
        </mxCell>
        <mxCell id="kh56WcbORNSIu8fUKzlQ-10" value="no" style="edgeLabel;html=1;align=center;verticalAlign=middle;resizable=0;points=[];" parent="Nc5N-h8wg_i3yVpdRop5-5" vertex="1" connectable="0">
          <mxGeometry x="0.02" relative="1" as="geometry">
            <mxPoint as="offset" />
          </mxGeometry>
        </mxCell>
        <mxCell id="OIeNNGRDegzZF8FHXS0N-7" style="edgeStyle=orthogonalEdgeStyle;rounded=0;orthogonalLoop=1;jettySize=auto;html=1;entryX=0.5;entryY=0;entryDx=0;entryDy=0;" parent="1" source="3xxATCVoaZWoX0nz2V9E-20" target="OIeNNGRDegzZF8FHXS0N-1" edge="1">
          <mxGeometry relative="1" as="geometry" />
        </mxCell>
        <mxCell id="kh56WcbORNSIu8fUKzlQ-7" value="yes" style="edgeLabel;html=1;align=center;verticalAlign=middle;resizable=0;points=[];" parent="OIeNNGRDegzZF8FHXS0N-7" vertex="1" connectable="0">
          <mxGeometry y="-1" relative="1" as="geometry">
            <mxPoint as="offset" />
          </mxGeometry>
        </mxCell>
        <mxCell id="3xxATCVoaZWoX0nz2V9E-20" value="check if it&#39;s an alias" style="rounded=0;whiteSpace=wrap;html=1;" parent="1" vertex="1">
          <mxGeometry x="280" y="560" width="120" height="80" as="geometry" />
        </mxCell>
        <mxCell id="Nc5N-h8wg_i3yVpdRop5-6" style="edgeStyle=orthogonalEdgeStyle;rounded=0;orthogonalLoop=1;jettySize=auto;html=1;entryX=0;entryY=0.5;entryDx=0;entryDy=0;" parent="1" source="Nc5N-h8wg_i3yVpdRop5-1" target="Nc5N-h8wg_i3yVpdRop5-2" edge="1">
          <mxGeometry relative="1" as="geometry" />
        </mxCell>
        <mxCell id="kh56WcbORNSIu8fUKzlQ-11" value="no" style="edgeLabel;html=1;align=center;verticalAlign=middle;resizable=0;points=[];" parent="Nc5N-h8wg_i3yVpdRop5-6" vertex="1" connectable="0">
          <mxGeometry x="0.02" y="1" relative="1" as="geometry">
            <mxPoint as="offset" />
          </mxGeometry>
        </mxCell>
        <mxCell id="Nc5N-h8wg_i3yVpdRop5-1" value="check in PATH&lt;br&gt;changedir()&lt;br&gt;access(X_OK)" style="rounded=0;whiteSpace=wrap;html=1;" parent="1" vertex="1">
          <mxGeometry x="440" y="560" width="160" height="80" as="geometry" />
        </mxCell>
        <mxCell id="Nc5N-h8wg_i3yVpdRop5-2" value="not found&lt;br&gt;message to stderr&lt;br&gt;return 127" style="rounded=0;whiteSpace=wrap;html=1;" parent="1" vertex="1">
          <mxGeometry x="680" y="560" width="120" height="80" as="geometry" />
        </mxCell>
        <mxCell id="OIeNNGRDegzZF8FHXS0N-17" style="edgeStyle=orthogonalEdgeStyle;rounded=0;orthogonalLoop=1;jettySize=auto;html=1;entryX=0.5;entryY=0;entryDx=0;entryDy=0;" parent="1" source="OIeNNGRDegzZF8FHXS0N-1" target="OIeNNGRDegzZF8FHXS0N-15" edge="1">
          <mxGeometry relative="1" as="geometry" />
        </mxCell>
        <mxCell id="OIeNNGRDegzZF8FHXS0N-20" style="edgeStyle=orthogonalEdgeStyle;rounded=0;orthogonalLoop=1;jettySize=auto;html=1;exitX=0.5;exitY=1;exitDx=0;exitDy=0;entryX=0.5;entryY=0;entryDx=0;entryDy=0;" parent="1" source="OIeNNGRDegzZF8FHXS0N-1" target="OIeNNGRDegzZF8FHXS0N-14" edge="1">
          <mxGeometry relative="1" as="geometry" />
        </mxCell>
        <mxCell id="OIeNNGRDegzZF8FHXS0N-1" value="command found" style="rounded=0;whiteSpace=wrap;html=1;" parent="1" vertex="1">
          <mxGeometry x="280" y="720" width="120" height="80" as="geometry" />
        </mxCell>
        <mxCell id="OIeNNGRDegzZF8FHXS0N-9" value="" style="endArrow=none;html=1;rounded=0;entryX=0.5;entryY=1;entryDx=0;entryDy=0;" parent="1" target="3xxATCVoaZWoX0nz2V9E-19" edge="1">
          <mxGeometry width="50" height="50" relative="1" as="geometry">
            <mxPoint x="160" y="760" as="sourcePoint" />
            <mxPoint x="150" y="700" as="targetPoint" />
          </mxGeometry>
        </mxCell>
        <mxCell id="kh56WcbORNSIu8fUKzlQ-6" value="yes" style="edgeLabel;html=1;align=center;verticalAlign=middle;resizable=0;points=[];" parent="OIeNNGRDegzZF8FHXS0N-9" vertex="1" connectable="0">
          <mxGeometry x="0.3167" y="1" relative="1" as="geometry">
            <mxPoint as="offset" />
          </mxGeometry>
        </mxCell>
        <mxCell id="OIeNNGRDegzZF8FHXS0N-10" value="" style="endArrow=classic;html=1;rounded=0;entryX=0;entryY=0.5;entryDx=0;entryDy=0;" parent="1" target="OIeNNGRDegzZF8FHXS0N-1" edge="1">
          <mxGeometry width="50" height="50" relative="1" as="geometry">
            <mxPoint x="160" y="760" as="sourcePoint" />
            <mxPoint x="230" y="760" as="targetPoint" />
          </mxGeometry>
        </mxCell>
        <mxCell id="OIeNNGRDegzZF8FHXS0N-11" value="" style="endArrow=none;html=1;rounded=0;entryX=0.5;entryY=1;entryDx=0;entryDy=0;" parent="1" edge="1">
          <mxGeometry width="50" height="50" relative="1" as="geometry">
            <mxPoint x="519.5" y="760" as="sourcePoint" />
            <mxPoint x="519.5" y="640" as="targetPoint" />
          </mxGeometry>
        </mxCell>
        <mxCell id="kh56WcbORNSIu8fUKzlQ-8" value="yes" style="edgeLabel;html=1;align=center;verticalAlign=middle;resizable=0;points=[];" parent="OIeNNGRDegzZF8FHXS0N-11" vertex="1" connectable="0">
          <mxGeometry x="0.3333" relative="1" as="geometry">
            <mxPoint x="1" as="offset" />
          </mxGeometry>
        </mxCell>
        <mxCell id="OIeNNGRDegzZF8FHXS0N-12" value="" style="endArrow=classic;html=1;rounded=0;entryX=0;entryY=0.5;entryDx=0;entryDy=0;" parent="1" edge="1">
          <mxGeometry width="50" height="50" relative="1" as="geometry">
            <mxPoint x="520" y="760" as="sourcePoint" />
            <mxPoint x="400" y="759.5" as="targetPoint" />
          </mxGeometry>
        </mxCell>
        <mxCell id="OIeNNGRDegzZF8FHXS0N-13" value="return 2 if command fail" style="rounded=0;whiteSpace=wrap;html=1;" parent="1" vertex="1">
          <mxGeometry x="280" y="1080" width="120" height="80" as="geometry" />
        </mxCell>
        <mxCell id="OIeNNGRDegzZF8FHXS0N-14" value="built-in command" style="rounded=0;whiteSpace=wrap;html=1;" parent="1" vertex="1">
          <mxGeometry x="80" y="880" width="120" height="40" as="geometry" />
        </mxCell>
        <mxCell id="OIeNNGRDegzZF8FHXS0N-18" style="edgeStyle=orthogonalEdgeStyle;rounded=0;orthogonalLoop=1;jettySize=auto;html=1;entryX=0.5;entryY=0;entryDx=0;entryDy=0;" parent="1" source="OIeNNGRDegzZF8FHXS0N-15" target="OIeNNGRDegzZF8FHXS0N-16" edge="1">
          <mxGeometry relative="1" as="geometry" />
        </mxCell>
        <mxCell id="OIeNNGRDegzZF8FHXS0N-15" value="non built-in command" style="rounded=0;whiteSpace=wrap;html=1;" parent="1" vertex="1">
          <mxGeometry x="280" y="880" width="120" height="40" as="geometry" />
        </mxCell>
        <mxCell id="OIeNNGRDegzZF8FHXS0N-21" style="edgeStyle=orthogonalEdgeStyle;rounded=0;orthogonalLoop=1;jettySize=auto;html=1;entryX=0.5;entryY=0;entryDx=0;entryDy=0;" parent="1" source="OIeNNGRDegzZF8FHXS0N-16" target="OIeNNGRDegzZF8FHXS0N-13" edge="1">
          <mxGeometry relative="1" as="geometry" />
        </mxCell>
        <mxCell id="OIeNNGRDegzZF8FHXS0N-16" value="fork" style="rounded=0;whiteSpace=wrap;html=1;" parent="1" vertex="1">
          <mxGeometry x="280" y="960" width="120" height="40" as="geometry" />
        </mxCell>
        <mxCell id="OIeNNGRDegzZF8FHXS0N-28" value="" style="endArrow=none;html=1;rounded=0;entryX=0.5;entryY=1;entryDx=0;entryDy=0;" parent="1" edge="1">
          <mxGeometry width="50" height="50" relative="1" as="geometry">
            <mxPoint x="140" y="1120" as="sourcePoint" />
            <mxPoint x="140" y="920" as="targetPoint" />
          </mxGeometry>
        </mxCell>
        <mxCell id="OIeNNGRDegzZF8FHXS0N-29" value="" style="endArrow=classic;html=1;rounded=0;entryX=0;entryY=0.5;entryDx=0;entryDy=0;" parent="1" target="OIeNNGRDegzZF8FHXS0N-13" edge="1">
          <mxGeometry width="50" height="50" relative="1" as="geometry">
            <mxPoint x="140" y="1119.5" as="sourcePoint" />
            <mxPoint x="260" y="1119.5" as="targetPoint" />
          </mxGeometry>
        </mxCell>
      </root>
    </mxGraphModel>
  </diagram>
</mxfile>
